<svg xmlns="http://www.w3.org/2000/svg" width="24.02" height="20" viewBox="0 0 24.02 24">
  <g id="Icon_ionic-ios-rocket" data-name="Icon ionic-ios-rocket" transform="translate(-3.366 -3.372)">
    <path id="Path_1" data-name="Path 1" d="M27.26,3.7a.255.255,0,0,0-.19-.2c-3.14-.768-10.4,1.968-14.327,5.9a16.992,16.992,0,0,0-1.911,2.257,7.11,7.11,0,0,0-3.458.433c-2.915,1.281-3.764,4.629-4,6.067a.517.517,0,0,0,.566.6l4.681-.514A10.407,10.407,0,0,0,8.684,19.3a1.048,1.048,0,0,0,.306.641L10.8,21.754a1.048,1.048,0,0,0,.641.306,10.387,10.387,0,0,0,1.051.063L11.98,26.8a.517.517,0,0,0,.6.566c1.437-.231,4.791-1.079,6.067-3.995a7.142,7.142,0,0,0,.439-3.446,17.019,17.019,0,0,0,2.263-1.911C25.3,14.088,28.016,6.994,27.26,3.7Zm-9.421,9.23a2.465,2.465,0,1,1,3.487,0A2.463,2.463,0,0,1,17.839,12.928Z" fill="#fff"/>
    <path id="Path_2" data-name="Path 2" d="M11.9,26.56h0a2.516,2.516,0,0,1-1.313.531,1.785,1.785,0,0,1-2.056-2.056,2.466,2.466,0,0,1,.524-1.307l.007-.007a.222.222,0,0,0-.186-.378,3.049,3.049,0,0,0-1.784.869C5.9,25.406,5.787,29.836,5.787,29.836s4.437-.113,5.631-1.307a3.029,3.029,0,0,0,.869-1.784A.227.227,0,0,0,11.9,26.56Z" transform="translate(-0.137 -4.708)" fill="#fff"/>
  </g>
</svg>
